HIERARCHY
ROOT SpineBase
{
  OFFSET 0.000000 0.000000 0.000000
  CHANNELS 6 Xposition Yposition Zposition Zrotation Xrotation Yrotation
  JOINT SpineMid
  {
    OFFSET -0.000000 28.210620 0.000000
    CHANNELS 3 Zrotation Xrotation Yrotation
    JOINT SpineShoulder
    {
      OFFSET 0.039578 21.020644 -0.655779
      CHANNELS 3 Zrotation Xrotation Yrotation
      JOINT Neck
      {
        OFFSET 0.055690 6.971960 -0.479519
        CHANNELS 3 Zrotation Xrotation Yrotation
        JOINT Head
        {
          OFFSET 3.025982 13.017266 -0.827904
          CHANNELS 3 Zrotation Xrotation Yrotation
          End Site
          {
            OFFSET 0 0 0
          }
        }
      }
      JOINT ShoulderLeft
      {
        OFFSET -14.299494 -3.285878 -4.916836
        CHANNELS 3 Zrotation Xrotation Yrotation
        JOINT ElbowLeft
        {
          OFFSET -6.535763 -20.881769 -0.479247
          CHANNELS 3 Zrotation Xrotation Yrotation
          JOINT WristLeft
          {
            OFFSET -5.152410 -22.342812 -3.872338
            CHANNELS 3 Zrotation Xrotation Yrotation
            JOINT HandLeft
            {
              OFFSET -2.640126 -6.878108 -0.333769
              CHANNELS 3 Zrotation Xrotation Yrotation
              JOINT HandTipLeft
              {
                OFFSET -1.215572 -5.945667 -0.443061
                CHANNELS 3 Zrotation Xrotation Yrotation
                End Site
                {
                  OFFSET 0 0 0
                }
              }
              JOINT ThumbLeft
              {
                OFFSET 1.996548 -1.857443 -2.655415
                CHANNELS 3 Zrotation Xrotation Yrotation
                End Site
                {
                  OFFSET 0 0 0
                }
              }
            }
          }
        }
      }
      JOINT ShoulderRight
      {
        OFFSET 15.798744 -5.429919 2.977190
        CHANNELS 3 Zrotation Xrotation Yrotation
        JOINT ElbowRight
        {
          OFFSET 2.063598 -22.183402 4.359487
          CHANNELS 3 Zrotation Xrotation Yrotation
          JOINT WristRight
          {
            OFFSET -1.706498 -21.530480 -5.336540
            CHANNELS 3 Zrotation Xrotation Yrotation
            JOINT HandRight
            {
              OFFSET 0.263053 -6.918424 -1.764184
              CHANNELS 3 Zrotation Xrotation Yrotation
              JOINT HandTipRight
              {
                OFFSET 0.820095 -6.332122 1.199420
                CHANNELS 3 Zrotation Xrotation Yrotation
                End Site
                {
                  OFFSET 0 0 0
                }
              }
              JOINT ThumbRight
              {
                OFFSET 0.261499 0.521539 -3.044946
                CHANNELS 3 Zrotation Xrotation Yrotation
                End Site
                {
                  OFFSET 0 0 0
                }
              }
            }
          }
        }
      }
    }
  }
  JOINT HipLeft
  {
    OFFSET -6.990765 0.265152 -4.098512
    CHANNELS 3 Zrotation Xrotation Yrotation
    JOINT KneeLeft
    {
      OFFSET -7.827670 -36.033897 -4.462528
      CHANNELS 3 Zrotation Xrotation Yrotation
      JOINT AnkleLeft
      {
        OFFSET -3.841679 -36.396854 2.322190
        CHANNELS 3 Zrotation Xrotation Yrotation
        JOINT FootLeft
        {
          OFFSET -2.349427 -6.220400 -10.059359
          CHANNELS 3 Zrotation Xrotation Yrotation
          End Site
          {
            OFFSET 0 0 0
          }
        }
      }
    }
  }
  JOINT HipRight
  {
    OFFSET 5.983663 0.376625 -2.029169
    CHANNELS 3 Zrotation Xrotation Yrotation
    JOINT KneeRight
    {
      OFFSET 0.194035 -28.248289 3.981010
      CHANNELS 3 Zrotation Xrotation Yrotation
      JOINT AnkleRight
      {
        OFFSET -2.412683 -25.194369 10.971398
        CHANNELS 3 Zrotation Xrotation Yrotation
        JOINT FootRight
        {
          OFFSET -0.425911 8.724190 -6.300440
          CHANNELS 3 Zrotation Xrotation Yrotation
          End Site
          {
            OFFSET 0 0 0
          }
        }
      }
    }
  }
}
MOTION
Frames: 13
Frame Time: 0.033333
52.684298 78.396106 424.684701 0.590967 -0.281632 -11.639524 0.182397 0.546149 11.663870 0.649968 0.250760 0.072352 -9.616397 5.601153 -1.647947 0.000000 0.000000 0.000000 -7.561398 1.878716 -0.615989 21.886948 -0.650803 -2.064852 14.099190 8.618856 -4.680262 -16.011435 7.496572 -1.842647 0.000000 0.000000 0.000000 0.000000 0.000000 0.000000 2.413507 0.186782 0.736539 11.723719 -10.744314 -2.499253 -9.790544 7.352891 1.879132 5.923240 20.634313 4.220647 0.000000 0.000000 0.000000 0.000000 0.000000 0.000000 6.550762 -5.016025 12.638754 0.800965 9.555384 -1.196102 -5.644307 -4.423423 -1.309746 0.000000 0.000000 0.000000 5.231400 -2.588950 12.468184 -1.112484 -0.573666 1.533562 -129.871401 -51.571543 -123.160238 0.000000 0.000000 0.000000
52.735616 78.389575 424.586658 0.363432 0.332565 -12.240617 -0.211638 1.179434 12.247877 0.630643 0.476538 0.049687 -10.860323 6.945728 -2.324098 0.000000 0.000000 0.000000 -7.487417 1.218089 -0.960070 24.011847 -2.402336 -1.362233 14.849184 8.559773 -4.639931 -17.758053 7.306896 -1.974724 0.000000 0.000000 0.000000 0.000000 0.000000 0.000000 2.886572 -1.366118 0.871322 11.711291 -9.635422 -2.730557 -10.038599 7.013314 2.020382 7.054968 18.855641 4.213534 0.000000 0.000000 0.000000 0.000000 0.000000 0.000000 6.806144 -5.539458 13.320660 1.115895 9.639832 -1.253446 -5.014833 -4.263843 -2.639122 0.000000 0.000000 0.000000 5.479881 -3.258369 13.099871 -0.885803 -0.225552 1.545009 -134.699548 -53.915748 -128.840748 0.000000 0.000000 0.000000
52.830046 78.400884 424.401321 0.001099 1.302657 -12.952496 -0.701444 1.982196 12.948053 0.614277 0.661495 0.023383 -10.702660 7.330298 -2.980887 0.000000 0.000000 0.000000 -6.802038 -0.470442 -1.212539 23.818879 0.222924 -2.267430 17.436893 2.841907 -0.448722 -18.113515 10.158519 -3.283581 0.000000 0.000000 0.000000 0.000000 0.000000 0.000000 3.324318 -3.352411 1.021707 11.989143 -8.580303 -2.921912 -9.857106 7.562531 1.963890 6.883791 18.074223 4.548421 0.000000 0.000000 0.000000 0.000000 0.000000 0.000000 7.313826 -6.371427 14.163178 1.338258 9.532894 -1.272440 -3.197627 -2.465796 -6.227947 0.000000 0.000000 0.000000 5.698625 -4.077699 13.830519 -0.279702 -0.195385 1.660811 -135.974688 -51.465466 -129.603643 0.000000 0.000000 0.000000
52.960968 78.413028 424.191132 -0.664860 2.898199 -13.437110 -0.942739 2.535630 13.440614 0.607103 0.728555 -0.003421 -10.326631 9.032844 -3.869809 0.000000 0.000000 0.000000 -5.485594 -2.002265 -1.518558 21.668324 5.877749 -3.941961 24.740399 -3.811874 5.525119 -19.607401 16.248865 -6.227521 0.000000 0.000000 0.000000 0.000000 0.000000 0.000000 4.000307 -4.599758 1.307379 11.856789 -8.063601 -3.037605 -9.434102 8.674456 1.839174 6.235818 15.091614 4.938954 0.000000 0.000000 0.000000 0.000000 0.000000 0.000000 8.308308 -7.675090 14.857224 1.324257 9.954493 -1.347077 -0.092243 -1.938748 -11.206458 0.000000 0.000000 0.000000 6.330503 -5.882504 14.403149 0.331368 0.116919 1.739511 -135.299779 -51.140659 -128.711977 0.000000 0.000000 0.000000
53.201791 78.434881 424.000236 -1.440652 5.109124 -13.542130 -1.006590 2.895653 13.587293 0.628030 0.749763 -0.026091 -9.595794 9.540705 -4.668237 0.000000 0.000000 0.000000 -3.919064 -3.128190 -1.963270 17.513827 17.027260 -6.743116 35.955489 0.360952 5.290190 -28.849232 5.228287 -3.131931 0.000000 0.000000 0.000000 0.000000 0.000000 0.000000 4.554342 -4.961991 1.692640 11.653446 -8.396144 -3.016204 -8.926240 8.649405 1.755300 3.159446 8.277880 4.585298 0.000000 0.000000 0.000000 0.000000 0.000000 0.000000 9.529868 -9.447428 15.274431 1.092670 9.609260 -1.256862 1.247333 -3.001476 -12.560742 0.000000 0.000000 0.000000 7.343590 -8.320180 14.730079 0.496669 0.635896 1.655135 -135.256069 -49.351347 -128.664885 0.000000 0.000000 0.000000
53.600074 78.439278 423.853545 -2.103572 7.474319 -13.351630 -0.895528 2.978972 13.466699 0.654386 0.745731 -0.040406 -8.402783 10.378781 -5.428542 0.000000 0.000000 0.000000 -2.679877 -3.962044 -2.391419 4.763473 42.926240 -9.408749 59.274228 50.598163 -47.973138 -27.714609 -39.137477 1.105636 0.000000 0.000000 0.000000 0.000000 0.000000 0.000000 4.760682 -4.725146 2.039542 11.537310 -9.497675 -2.843126 -8.384547 8.910225 1.655157 0.163790 7.364881 4.268070 0.000000 0.000000 0.000000 0.000000 0.000000 0.000000 10.566170 -11.335507 15.446080 0.695492 8.810788 -1.076266 2.500934 -3.896343 -13.480451 0.000000 0.000000 0.000000 8.078792 -11.048547 14.773118 0.662749 1.125063 1.524892 -139.786454 -48.916358 -134.149367 0.000000 0.000000 0.000000
54.136473 78.337198 423.864758 -2.672122 9.856581 -12.953671 -0.649023 2.804465 13.160617 0.677427 0.706443 -0.049435 -7.223102 10.316515 -5.942136 0.000000 0.000000 0.000000 -1.612077 -4.116750 -2.885647 -58.904878 72.561533 31.446611 -17.707560 27.155561 -35.015440 -37.456236 4.052246 -20.402308 0.000000 0.000000 0.000000 0.000000 0.000000 0.000000 4.687784 -3.736380 2.342798 11.450703 -10.969954 -2.609338 -7.480262 9.555026 1.445779 -0.914857 1.791836 3.952446 0.000000 0.000000 0.000000 0.000000 0.000000 0.000000 11.471048 -13.144683 15.414943 0.049330 8.047392 -0.874399 2.835114 -3.506990 -12.882146 0.000000 0.000000 0.000000 8.633611 -13.806523 14.614037 0.683691 1.532102 1.339716 -132.224623 -47.845294 -126.270436 0.000000 0.000000 0.000000
54.827910 78.101628 424.164564 -2.976252 11.889780 -12.241752 -0.274242 2.360687 12.532445 0.696782 0.589386 -0.048935 -7.011332 10.586868 -6.387707 0.000000 0.000000 0.000000 -1.459790 -3.512362 -3.478150 -124.790839 56.039795 73.846168 -6.709611 3.496899 -33.178677 -36.275402 3.005720 -12.982470 0.000000 0.000000 0.000000 0.000000 0.000000 0.000000 4.038015 -1.991991 2.459804 11.750977 -12.103466 -2.390383 -6.372249 9.450865 1.229812 -3.552378 -1.118986 3.429334 0.000000 0.000000 0.000000 0.000000 0.000000 0.000000 11.785214 -14.545886 14.917195 -0.732952 7.208420 -0.655833 1.661847 -2.216521 -9.689758 0.000000 0.000000 0.000000 8.627626 -16.185841 14.014665 0.648546 1.811746 1.122490 -120.015284 -49.732903 -114.124643 0.000000 0.000000 0.000000
55.470032 77.722812 424.544812 -3.198458 13.575955 -10.648237 0.137669 1.810951 11.020030 0.719705 0.487738 -0.044356 -8.609147 11.794883 -7.032741 0.000000 0.000000 0.000000 -1.770676 -2.574401 -4.094424 -127.782888 50.792093 70.331148 -1.872233 -0.423884 -30.528919 -44.074168 0.509932 -31.248749 0.000000 0.000000 0.000000 0.000000 0.000000 0.000000 3.316751 -0.221290 2.513841 12.079630 -12.750135 -2.235400 -5.129003 8.652813 1.045581 -3.567469 -4.457437 3.583763 0.000000 0.000000 0.000000 0.000000 0.000000 0.000000 11.685807 -15.743581 13.429505 -1.513231 6.214005 -0.427925 -0.041735 -1.188261 -5.701147 0.000000 0.000000 0.000000 8.564882 -18.761350 12.577624 0.130283 2.838794 0.793557 -92.160160 -55.864196 -87.385208 0.000000 0.000000 0.000000
56.279953 77.384934 425.217210 -2.930753 14.465508 -10.424321 0.342970 1.165164 10.788430 0.681537 0.411860 -0.040941 -11.730651 13.654263 -7.634285 0.000000 0.000000 0.000000 -2.594505 -0.945582 -4.717744 -125.858968 49.945899 66.842560 0.877233 -0.541853 -27.853989 -36.873384 11.018838 5.134504 0.000000 0.000000 0.000000 0.000000 0.000000 0.000000 2.570049 1.500176 2.481764 12.211858 -12.609441 -2.241062 -3.912060 7.400714 0.938979 -4.553830 -0.363432 4.116048 0.000000 0.000000 0.000000 0.000000 0.000000 0.000000 10.973142 -16.154987 13.055523 -1.855738 6.104442 -0.397086 -1.391712 -0.045193 -2.803830 0.000000 0.000000 0.000000 7.914954 -19.809513 12.207998 -0.397096 3.281366 0.437675 -67.860227 -53.406520 -63.907725 0.000000 0.000000 0.000000
57.104529 77.075418 426.088568 -2.398059 14.658223 -11.252485 0.345495 0.700567 11.545544 0.622815 0.385005 -0.037378 -15.761853 14.739377 -7.965481 0.000000 0.000000 0.000000 -3.612837 0.327015 -5.111485 -117.897088 56.139230 66.134950 -3.468812 0.048619 -30.824696 -29.423744 24.213358 43.204145 0.000000 0.000000 0.000000 0.000000 0.000000 0.000000 1.748081 3.183035 2.384337 12.344281 -12.029380 -2.291684 -2.739825 5.119925 0.960124 -5.470834 3.742826 4.586750 0.000000 0.000000 0.000000 0.000000 0.000000 0.000000 9.959557 -15.897948 13.560027 -1.862366 6.451807 -0.467813 -2.669766 0.110632 -0.137446 0.000000 0.000000 0.000000 7.176291 -19.429067 12.770709 -1.054990 2.962925 0.071619 -44.732315 -43.359473 -41.308587 0.000000 0.000000 0.000000
57.857451 76.806007 427.011637 -1.942252 14.540171 -12.390849 0.071753 0.698895 12.596124 0.534421 0.467627 -0.048414 -18.897934 14.953645 -8.181746 0.000000 0.000000 0.000000 -4.664375 1.040179 -5.414603 -49.091097 66.880429 22.414657 -21.733525 15.479711 -37.149063 41.551960 28.802036 60.868878 0.000000 0.000000 0.000000 0.000000 0.000000 0.000000 1.271423 3.525562 2.280514 12.818236 -11.049429 -2.354270 -2.597399 5.020725 1.051730 -5.175527 6.487571 5.105009 0.000000 0.000000 0.000000 0.000000 0.000000 0.000000 8.995363 -15.265619 14.333101 -1.873186 6.235821 -0.466686 -1.066695 0.854912 -1.886352 0.000000 0.000000 0.000000 6.364004 -18.644623 13.569037 -1.343436 2.843954 -0.241456 -25.426812 -22.073478 -22.063835 0.000000 0.000000 0.000000
58.389041 76.520059 427.811511 -1.565381 14.092113 -14.015888 -0.236677 0.769505 14.138880 0.456416 0.455407 -0.059922 -21.173984 14.782871 -8.165058 0.000000 0.000000 0.000000 -4.926929 1.615646 -5.477977 5.119228 40.283522 -6.827268 -31.793400 41.362655 -31.286341 73.578673 -3.258974 65.999067 0.000000 0.000000 0.000000 0.000000 0.000000 0.000000 0.958558 2.820621 2.071554 13.511245 -9.162181 -2.538713 -2.893319 2.586900 1.323473 -5.294878 9.986639 5.334384 0.000000 0.000000 0.000000 0.000000 0.000000 0.000000 8.325320 -14.519578 15.689128 -1.645248 6.879353 -0.582864 1.299371 1.854448 -5.451154 0.000000 0.000000 0.000000 5.743195 -17.499086 14.893911 -1.417464 2.685415 -0.460888 -26.573544 -18.101594 -22.782231 0.000000 0.000000 0.000000
